<svg width="325" height="324" viewBox="0 0 325 324" xmlns="http://www.w3.org/2000/svg"><title>1328DB0F-5350-460F-832C-6FEA323CCD16</title><defs><linearGradient x1="100%" y1="50%" x2="0%" y2="50%" id="a"><stop stop-color="#B9CC4C" offset="0%"/><stop stop-color="#57AD6E" offset="100%"/></linearGradient></defs><g fill="none"><path d="M303.75 324H20.25C8.775 324 0 315.225 0 303.75V20.25C0 8.775 8.775 0 20.25 0h283.5C315.225 0 324 8.775 324 20.25v283.5c0 11.475-8.775 20.25-20.25 20.25z" fill="#2D5396"/><path d="M324 56.7l-52.65 49.95-135.675-53.325 27-53.325h-14.85l-68.85 136.35C51.3 103.275 23.625 81 0 64.8v41.85c26.325 20.925 57.375 51.3 85.05 94.5L0 248.4v15.525l93.15-51.3c22.275 33.075 50.625 53.325 81 64.8L168.75 324h13.5l4.725-41.85c24.3 7.425 48.6 10.125 71.55 10.125 24.975 0 47.925-3.375 65.475-6.75V251.1c-37.125 8.1-110.025 16.875-164.7-18.9l55.35-52.65L324 226.8v-14.85l-98.55-43.2 49.274-47.25L324 141.75v-14.175l-38.475-14.85L324 75.6V56.7zM148.5 224.1c-11.475-8.775-21.6-20.25-30.375-34.425-9.45-15.525-19.575-29.7-29.7-42.525l41.85-82.35 130.95 51.3-112.725 108z" fill="#383838"/><path d="M20.274 0C8.786 0 0 8.796 0 20.299v44.656C23.653 80.517 51.36 103.522 79.068 136L148 0H20.274z" fill="#2D5396"/><path d="M93.25 212.548L0 263.884v39.852C0 314.544 8.785 324 20.272 324h148.66l5.406-46.607c-30.408-11.483-59.464-31.747-81.088-64.845zm25.003-22.291c-10.136-15.535-20.272-29.72-30.408-42.554l41.895-82.407 131.09 51.336-112.17 107.4c-11.487-8.782-21.623-20.266-30.407-33.775z" fill="#54A0CF"/><path d="M85 201.667L0 249V107c26.31 20.962 57.341 51.39 85 94.667z" fill="#E8EAE9"/><path d="M304.677 0h-141.58L136 53.5 272.161 107 325 56.886v-36.57C325 8.804 316.193 0 304.677 0z" fill="#54A0CF"/><path d="M214.759 179.464L324 226.742v24.315c-37.088 8.105-109.916 16.885-164.537-18.912l55.296-52.68zm43.157 112.792c-22.927 0-47.203-2.701-71.48-10.13L182.392 324h121.38c11.463 0 20.229-9.455 20.229-20.262v-18.236c-17.532 3.377-40.46 6.754-66.084 6.754z" fill="#E8EAE9"/><path d="M231 93.65C231 136.188 153.5 253 153.5 253S76 136.864 76 93.65C76 51.11 110.37 16 153.5 16S231 51.111 231 93.65z" fill="url(#a)"/><ellipse fill="#FFF" cx="154.5" cy="93" rx="45.5" ry="45"/><path d="M183.578 77.902l-4.675-5.724c-.765-.785-1.696-1.178-2.79-1.178-1.096 0-2.027.393-2.793 1.178L146.387 99.83l-12.07-12.416c-.767-.786-1.697-1.178-2.792-1.178-1.095 0-2.026.392-2.792 1.178l-5.583 5.724c-.767.786-1.15 1.74-1.15 2.862s.383 2.077 1.15 2.863l14.861 15.235 5.584 5.724c.766.786 1.697 1.178 2.792 1.178 1.095 0 2.025-.393 2.792-1.178l5.584-5.724 29.724-30.472c.766-.785 1.15-1.74 1.15-2.862s-1.294-2.076-2.06-2.862z" fill="url(#a)"/></g></svg>